<mxfile host="app.diagrams.net" modified="2021-07-25T23:38:35.350Z" agent="5.0 (Windows NT 10.0; Win64; x64) AppleWebKit/537.36 (KHTML, like Gecko) Chrome/92.0.4515.107 Safari/537.36" etag="UkyQqoMDht8g_XpVTBoo" version="14.9.2" type="github">
  <diagram id="PVcJIK8jwzVV2-7ozDgl" name="Page-1">
    <mxGraphModel dx="782" dy="468" grid="0" gridSize="10" guides="1" tooltips="1" connect="1" arrows="1" fold="1" page="1" pageScale="1" pageWidth="850" pageHeight="1100" math="0" shadow="0">
      <root>
        <mxCell id="0" />
        <mxCell id="1" parent="0" />
        <mxCell id="9W5hn0BKQ7LjwP9T91QZ-1" value="" style="rounded=0;whiteSpace=wrap;html=1;" vertex="1" parent="1">
          <mxGeometry x="47" y="51" width="736" height="409" as="geometry" />
        </mxCell>
        <mxCell id="9W5hn0BKQ7LjwP9T91QZ-2" value="MUMBAI REGION" style="text;html=1;strokeColor=#b85450;fillColor=#f8cecc;align=center;verticalAlign=middle;whiteSpace=wrap;rounded=0;" vertex="1" parent="1">
          <mxGeometry x="321" y="7" width="202" height="41" as="geometry" />
        </mxCell>
        <mxCell id="9W5hn0BKQ7LjwP9T91QZ-3" value="" style="rounded=0;whiteSpace=wrap;html=1;" vertex="1" parent="1">
          <mxGeometry x="55" y="58" width="342" height="392" as="geometry" />
        </mxCell>
        <mxCell id="9W5hn0BKQ7LjwP9T91QZ-4" value="" style="rounded=0;whiteSpace=wrap;html=1;" vertex="1" parent="1">
          <mxGeometry x="423" y="59.5" width="342" height="392" as="geometry" />
        </mxCell>
      </root>
    </mxGraphModel>
  </diagram>
</mxfile>
